<svg width="32" height="36" viewBox="0 0 32 36" fill="none" xmlns="http://www.w3.org/2000/svg">
<path d="M26.3106 18.6962C26.2943 15.7048 27.6473 13.447 30.3861 11.7842C28.8537 9.5916 26.5388 8.38526 23.4822 8.14888C20.5886 7.92065 17.426 9.83613 16.2686 9.83613C15.0459 9.83613 12.242 8.23039 10.0412 8.23039C5.49301 8.30375 0.659485 11.8576 0.659485 19.0875C0.659485 21.223 1.05073 23.4292 1.83322 25.7061C2.87655 28.6975 6.64229 36.0333 10.5711 35.9111C12.6251 35.8622 14.076 34.452 16.7495 34.452C19.3415 34.452 20.6864 35.9111 22.9768 35.9111C26.9382 35.854 30.3453 29.1865 31.3397 26.187C26.0253 23.6846 26.3106 18.8511 26.3106 18.6962ZM21.6971 5.31234C23.9223 2.67143 23.7186 0.266895 23.6534 -0.597107C21.689 -0.482993 19.4149 0.739651 18.1189 2.24758C16.6924 3.86147 15.8529 5.85846 16.0322 8.10812C18.1596 8.27114 20.0995 7.17891 21.6971 5.31234Z" fill="#03030F"/>
</svg>
