<svg width="132" height="82" viewBox="0 0 132 82" fill="none" xmlns="http://www.w3.org/2000/svg">
<g clip-path="url(#clip0_290_1782)">
<path d="M2.63762 27.0391C2.69618 26.8252 2.75457 26.6326 2.81105 26.4628C3.11895 25.5376 3.14331 23.1923 3.16613 20.9961C3.18461 19.2175 3.20207 17.5367 3.36831 16.7873C3.50312 16.1797 4.02926 15.572 4.65386 15.0355C4.73574 15.9733 4.94223 16.8465 5.51366 17.5077C6.11973 18.2091 7.07309 17.9787 8.06144 17.7399C8.88642 17.5405 9.73578 17.3353 10.4279 17.6611C10.8911 17.8791 11.3968 18.0926 11.9171 18.3123C14.4086 19.364 17.2344 20.5569 17.3217 23.0666C17.4181 25.8352 13.3918 26.9905 10.775 27.6332C9.64518 27.9106 8.57281 27.4298 7.48432 26.9417C6.61366 26.5513 5.7327 26.1562 4.80378 26.141C4.1523 26.1303 3.58989 26.4694 3.02249 26.8116C2.89481 26.8886 2.76688 26.9657 2.63762 27.0391Z" fill="url(#paint0_linear_290_1782)"/>
<path d="M4.3311 40.1084C3.51088 39.6737 2.6166 38.691 2.25379 36.5105C1.80907 33.8377 1.89671 31.3648 2.15823 29.451C2.31133 29.3933 2.46465 29.3349 2.61807 29.2765L2.6184 29.2764C4.95154 28.3877 7.30483 27.4913 9.15651 28.8656C11.5795 30.6639 11.4184 35.1354 9.92805 37.7496C9.15848 39.0996 7.49789 39.4343 5.84302 39.768C5.32957 39.8715 4.81667 39.9749 4.3311 40.1084Z" fill="url(#paint1_linear_290_1782)"/>
<path d="M21.0973 51.1951C20.4323 51.2639 19.7245 51.2726 18.9717 51.2098C12.8282 50.697 10.565 45.7674 9.75146 42.7509C9.77892 42.7584 9.80608 42.7662 9.83293 42.7741C10.7588 43.0489 11.2028 43.9911 11.6487 44.9373C12.084 45.8612 12.5212 46.7888 13.4104 47.1028C14.1696 47.3708 14.9139 46.8673 15.6582 46.3638C16.4022 45.8605 17.1463 45.3571 17.9055 45.6242C18.7788 45.9315 19.0309 46.8898 19.2878 47.8664C19.4251 48.3882 19.5637 48.9152 19.7992 49.3509C20.1503 50.0003 20.6237 50.6007 21.0973 51.1951Z" fill="url(#paint2_linear_290_1782)"/>
<path d="M39.1164 42.676L30.9972 42.6522C30.6966 42.6513 30.4322 42.8463 30.3307 43.1298C29.8453 44.4839 28.1765 48.3621 24.4531 50.2267C24.1616 50.0705 23.8772 49.9183 23.6022 49.7783C22.4633 49.1983 22.4816 47.7689 22.5002 46.3111C22.5179 44.935 22.5358 43.5337 21.5808 42.798C20.482 41.9515 18.957 42.1732 17.4502 42.3921C15.8505 42.6246 14.2713 42.8541 13.2446 41.7992C11.5003 40.0073 12.4766 36.8929 13.2389 34.4613L13.2942 34.2847C13.3528 34.0974 13.4117 33.906 13.4715 33.7118L13.4718 33.7107C14.2735 31.1057 15.2319 27.9909 17.7788 27.3088C19.6279 26.8136 21.2162 28.0049 22.8408 29.2235C23.7366 29.8954 24.6435 30.5757 25.6113 30.9859C26.2649 31.263 26.9535 31.4254 27.6359 31.5864C28.6973 31.8366 29.7436 32.0834 30.6201 32.7526C31.6795 33.5616 32.3266 34.6811 32.9852 35.8205C33.2757 36.3231 33.5685 36.8297 33.9 37.3151C34.5494 38.2664 35.568 39.181 36.5807 40.0903C37.536 40.948 38.4861 41.8011 39.1164 42.676Z" fill="url(#paint3_linear_290_1782)"/>
<path d="M71.8741 42.7723L42.7783 42.6868C42.6425 42.5113 42.5682 42.299 42.5704 42.0402C42.5883 40.0085 49.4759 34.4111 51.2648 33.4425C52.421 32.8163 53.4141 33.0891 54.4305 33.3684C55.3784 33.6288 56.3467 33.8948 57.4867 33.4425C58.344 33.1023 58.4514 32.0728 58.5606 31.0258C58.6644 30.0314 58.7697 29.0212 59.5207 28.5707C60.8855 27.7517 63.2631 28.1221 64.1145 29.4656C64.5932 30.2212 64.1595 31.1861 63.733 32.1351C63.2871 33.1272 62.849 34.1019 63.4691 34.802C64.4658 35.9271 66.0889 36.1807 67.6897 36.4308C69.45 36.7058 71.1832 36.9766 72.0267 38.3975C72.7787 39.6643 72.5616 41.2972 71.8741 42.7723Z" fill="url(#paint4_linear_290_1782)"/>
<path d="M89.6266 42.8244L81.2375 42.7998C81.3278 42.4534 81.4252 42.1051 81.5226 41.7571C82.1519 39.5085 82.7767 37.2758 81.416 35.7032C80.3401 34.4596 78.473 35.2964 76.6061 36.1329C74.7389 36.9697 72.8719 37.8063 71.7972 36.5614C70.7189 35.3123 72.5357 34.3753 74.4935 33.3656C75.7025 32.7421 76.9653 32.0909 77.6332 31.3213C78.2349 30.6279 78.5503 29.7882 78.8704 28.9359C78.991 28.6148 79.1122 28.2919 79.2498 27.9743C79.5896 27.1894 79.73 26.1741 79.8689 25.1698C80.1332 23.2593 80.3919 21.3885 82.0076 21.2196C83.318 21.0826 83.7929 22.5278 84.291 24.044C84.7478 25.4343 85.2242 26.8842 86.3824 27.2286C87.9113 27.6832 89.4777 26.9438 91.0296 26.2113C92.6786 25.4329 94.3112 24.6622 95.8648 25.34C98.6357 26.5489 101.791 30.7168 100.048 33.1908C98.8589 34.8799 96.5103 34.767 94.1618 34.654C91.8131 34.541 89.4645 34.428 88.2752 36.1175C87.1471 37.7201 88.1244 39.7232 89.1106 41.7447C89.2863 42.1047 89.4622 42.4654 89.6266 42.8244Z" fill="url(#paint5_linear_290_1782)"/>
<path d="M102.14 49.2439C98.813 47.3386 97.9846 44.0801 97.7599 43.1961C97.74 43.1178 97.7248 43.0582 97.7131 43.0197C99.2559 42.1997 100.773 41.8179 102.064 42.7596C103.564 43.8543 103.043 45.8005 102.494 47.8465C102.37 48.3101 102.244 48.7788 102.14 49.2439Z" fill="url(#paint6_linear_290_1782)"/>
<path d="M114.267 48.7268C112.755 49.875 110.657 50.7133 107.762 50.6516C106.441 50.6234 105.294 50.4415 104.297 50.151C104.423 48.9044 105.004 47.553 105.578 46.217C106.578 43.8887 107.558 41.607 106.075 40.0079C104.567 38.3812 101.991 39.1445 99.4439 39.8993C96.8434 40.6699 94.2724 41.4318 92.8961 39.6332C91.7245 38.102 93.8321 37.3353 96.2575 36.453C98.2147 35.741 100.379 34.9537 101.194 33.6287C101.865 32.5384 101.418 30.7624 101.011 29.1445C100.534 27.247 100.112 25.567 101.611 25.4662C103.794 25.3194 105.01 27.3188 106.275 29.3997C107.128 30.804 108.005 32.2454 109.216 33.0892C109.746 33.4581 110.395 33.2501 111.057 33.0382C111.411 32.9245 111.77 32.8097 112.115 32.7823C113.045 32.7084 114.09 32.3644 115.131 32.0223C117.229 31.3322 119.305 30.6494 120.363 32.2029C121.347 33.6481 119.64 34.9981 117.939 36.3425C117.142 36.9728 116.346 37.6019 115.83 38.239C115.538 38.5996 115.144 38.8897 114.754 39.1763C114.111 39.6491 113.481 40.112 113.348 40.8655C113.08 42.3685 113.429 43.9772 113.772 45.556C114.007 46.6417 114.24 47.7134 114.267 48.7268Z" fill="url(#paint7_linear_290_1782)"/>
<path d="M125.171 42.7984L120.579 43.0228L118.575 42.8794C118.235 42.8551 117.929 43.0865 117.833 43.4135C117.62 44.1355 117.145 45.4361 116.2 46.7379C115.554 45.9138 115.118 45.0427 115.213 44.0646C115.499 41.1415 118.51 37.6566 121.422 38.0773C123.245 38.3405 124.017 40.133 124.818 41.9895C124.934 42.2593 125.051 42.5304 125.171 42.7984Z" fill="url(#paint8_linear_290_1782)"/>
<path d="M128.52 22.7513C130.629 24.2208 130.618 25.515 130.611 26.3298C130.61 26.3757 130.61 26.42 130.61 26.4628C130.61 26.8718 130.754 27.137 130.914 27.3057C131.126 27.528 131.353 27.7949 131.353 28.1023V30.9284C131.353 30.9284 131.353 39.1154 130.981 39.1154C130.857 39.1154 130.753 39.1785 130.67 39.2622C130.467 39.4669 130.579 39.7903 130.81 39.9633L131.011 40.1144C131.113 40.1911 131.194 40.2956 131.207 40.4228C131.249 40.8307 131.103 41.7618 128.938 41.9064H128.576C128.365 41.9064 128.195 42.0771 128.195 42.2876C128.195 42.4909 128.036 42.6585 127.833 42.6684L125.961 42.7599C124.115 41.0103 123.438 38.1895 122.942 35.6358C122.749 34.6423 123.126 33.6686 123.502 32.6984C123.894 31.6857 124.285 30.6769 124.024 29.6532C123.755 28.5939 122.685 27.7088 121.67 26.8698C120.357 25.7831 119.136 24.7738 119.87 23.5633C120.605 22.351 122.134 22.8244 123.745 23.3229C125.172 23.7647 126.663 24.2263 127.722 23.5522C128.056 23.34 128.314 23.0671 128.52 22.7513Z" fill="url(#paint9_linear_290_1782)"/>
<path d="M116.197 18.4635C117.628 18.8562 119.048 19.2553 120.376 19.6434C120.188 19.7834 119.985 19.9236 119.777 20.0663C119.039 20.5746 118.256 21.1136 117.979 21.7797C117.766 22.2908 117.931 22.8372 118.096 23.3874C118.251 23.9014 118.407 24.4188 118.257 24.9138C117.865 26.2096 117.038 27.3079 116.03 28.2137C115.733 28.4809 115.437 28.7706 115.137 29.0633C113.897 30.2768 112.602 31.5431 110.944 31.4864C108.99 31.4197 107.571 29.5855 106.363 28.0234L106.251 27.8794C106.174 27.7796 106.095 27.6783 106.014 27.5755L106.014 27.5747C104.862 26.1012 103.479 24.3308 104.076 22.6239C104.433 21.6045 105.566 21.2261 106.701 20.847C107.827 20.4708 108.956 20.0939 109.329 19.0893C109.613 18.3272 109.338 17.4337 108.919 16.5323C110.864 17.0338 113.128 17.6277 115.399 18.2455C115.507 18.3218 115.627 18.3794 115.766 18.4126C115.905 18.4459 116.049 18.4618 116.197 18.4635Z" fill="url(#paint10_linear_290_1782)"/>
<path d="M94.984 12.7253C96.7475 13.6549 97.9513 14.2892 98.1029 14.3684C98.186 14.4118 98.2854 14.4712 98.4009 14.5401C99.2139 15.0253 100.822 15.9852 103.105 15.186C103.235 15.1407 103.369 15.1286 103.502 15.1615C103.866 15.2515 104.713 15.462 105.883 15.7575C105.63 18.1102 104.514 20.4629 102.659 21.7967C100.338 23.4662 96.0002 24.8948 94.3317 22.5557C93.0128 20.7068 93.6318 18.4253 94.2693 16.0761C94.5717 14.9614 94.8783 13.8315 94.984 12.7253Z" fill="url(#paint11_linear_290_1782)"/>
<path d="M76.8425 3.13768C76.8449 3.13939 76.8473 3.14107 76.8496 3.14272C76.8567 3.14782 76.8636 3.15283 76.8704 3.15776C76.9161 3.19074 76.9568 3.22013 77.0085 3.24741C77.7349 3.63045 83.1869 6.50552 88.3678 9.23724C88.5157 9.81362 88.584 10.4043 88.5336 11.0137C88.5155 11.2319 88.4976 11.4653 88.4787 11.7106L88.4786 11.711C88.2325 14.9086 87.8322 20.1074 85.0994 19.3555C82.9612 18.7673 82.4459 16.3986 81.9135 13.9513C81.4495 11.8185 80.9725 9.62601 79.3969 8.50018C78.4086 7.79391 77.3193 8.60441 76.1798 9.45223C75.1742 10.2004 74.1296 10.9777 73.0807 10.7672C70.6117 10.2718 66.2052 8.34787 67.3286 6.07848C68.1092 4.50149 70.2247 4.43845 72.3089 4.37635C74.1685 4.32094 76.0031 4.26627 76.8425 3.13768Z" fill="url(#paint12_linear_290_1782)"/>
<path d="M50.0446 0.0815522C54.1765 -0.050836 58.0894 -0.0353765 61.3236 0.227299C65.5427 0.569963 68.6418 0.982743 70.9109 1.39032C69.2216 3.08453 66.3833 3.1892 63.7747 3.28541C63.3095 3.30256 62.8517 3.31945 62.409 3.34503C61.4289 3.40165 60.5608 2.94665 59.6869 2.48858C58.8983 2.07522 58.105 1.65937 57.2202 1.61471C56.4521 1.57594 55.7204 1.93795 55.0006 2.29404C54.1292 2.72513 53.2753 3.14753 52.3959 2.83958C51.3566 2.47563 50.821 1.49657 50.2734 0.495694C50.1978 0.357543 50.122 0.218975 50.0446 0.0815522Z" fill="url(#paint13_linear_290_1782)"/>
<path d="M45.8052 0.26223C46.5695 0.2223 47.3318 0.186109 48.0892 0.154239C48.2243 0.684116 48.2676 1.34515 48.3122 2.02702C48.3828 3.10625 48.4569 4.23767 48.9039 4.9838C49.1207 5.34555 49.5849 5.45533 50.0404 5.56307C50.5376 5.68066 51.0245 5.79582 51.1682 6.2335C51.3073 6.65748 50.9579 7.06403 50.6149 7.46323C50.2574 7.87921 49.9068 8.2872 50.1229 8.6986C50.805 9.99701 52.1268 11.0059 53.4141 11.9886C55.2681 13.4037 57.0508 14.7644 56.7487 16.8568C56.5487 18.242 55.0752 17.5807 53.3798 16.8198C51.8768 16.1452 50.1994 15.3924 49.0807 15.9181C47.676 16.5782 46.8234 18.4416 46.0239 20.189C45.0298 22.3616 44.1178 24.355 42.3285 23.6332C40.4128 22.8604 40.8761 20.5965 41.3729 18.1685C41.7566 16.2937 42.1602 14.3211 41.5042 12.8616C41.0643 11.8829 39.9355 11.5877 38.8017 11.2913C37.6915 11.001 36.5765 10.7095 36.0991 9.77364C35.1418 7.89699 34.9324 4.6013 36.7871 3.6141C38.0329 2.95094 39.4308 3.64077 40.8361 4.33433C42.2105 5.01255 43.592 5.69434 44.8457 5.11794C45.8154 4.67211 45.7904 3.21512 45.7667 1.83431C45.7571 1.27342 45.7476 0.725102 45.8052 0.26223Z" fill="url(#paint14_linear_290_1782)"/>
<path d="M31.5564 1.33691C34.7651 1.03599 38.316 0.734395 41.9229 0.494023C40.2327 2.5095 36.3622 3.04938 33.7365 2.44792C32.9028 2.25695 32.1894 1.8628 31.5564 1.33691Z" fill="url(#paint15_linear_290_1782)"/>
<path d="M27.3342 1.74972C27.1413 2.12546 26.9075 2.5192 26.67 2.91931C25.826 4.34067 24.9344 5.84238 25.6608 6.90306C26.6233 8.30854 28.62 8.54526 30.5596 8.7752C32.7058 9.02965 34.782 9.27579 35.3097 11.088C35.7691 12.6659 33.9318 13.1019 31.9171 13.5801C30.4544 13.9272 28.8983 14.2965 28.0594 15.141C27.3036 15.9018 27.0303 17.3373 26.7749 18.6787C26.4343 20.4674 26.1255 22.0891 24.7472 21.7213C22.7682 21.1932 22.1669 19.0946 21.5441 16.9209C21.1346 15.4918 20.7158 14.0301 19.89 12.9611C19.4483 12.3893 18.6592 12.3198 17.907 12.2535C17.7323 12.2381 17.5594 12.2229 17.3935 12.2016C16.0302 12.0265 14.5575 12.1888 13.1005 12.3494C11.3887 12.5381 9.69848 12.7244 8.23284 12.3583C10.2548 10.4915 14.854 6.25963 16.1878 5.0324C16.4076 4.83021 16.4564 4.50532 16.4266 4.20791C16.3699 3.64294 16.6138 2.77053 18.6002 2.64618C18.6415 2.64359 18.6873 2.64038 18.7375 2.63659C19.3787 3.37243 20.1042 3.92493 21.0395 4.0176C22.0729 4.12001 22.9055 3.20026 23.6716 2.13034C24.7661 2.0144 25.997 1.88535 27.3342 1.74972Z" fill="url(#paint16_linear_290_1782)"/>
<path d="M37.6153 36.2705C36.0578 35.9952 34.8475 34.9231 33.6422 33.8554C33.3447 33.5919 33.0476 33.3287 32.7456 33.0778C32.3374 32.7386 32.0574 32.2893 31.7785 31.8416C31.472 31.3497 31.1666 30.8596 30.6936 30.5194C30.1818 30.1514 29.5693 29.9908 28.9606 29.8311C28.261 29.6477 27.5664 29.4656 27.0353 28.9713C26.748 28.7038 26.3937 28.4082 26.0182 28.0948L26.0179 28.0945C24.4122 26.7545 22.4185 25.0905 23.6101 23.9265C24.571 22.9879 26.0922 23.6419 27.5987 24.2897C29.1278 24.947 30.6418 25.598 31.5399 24.5712C32.6829 23.2645 32.2331 21.3406 31.7843 19.4208C31.332 17.4863 30.8807 15.5559 32.0609 14.2652C33.6651 12.5106 37.4855 14.7509 38.5551 16.8988C39.1423 18.0779 38.4423 19.5217 37.7665 20.9155C37.026 22.4427 36.3147 23.9097 37.3581 24.9026C38.8868 26.3573 41.2169 26.2246 43.5204 26.0933C45.9556 25.9546 48.3611 25.8175 49.7587 27.5597C51.6379 29.9023 48.1778 33.6447 45.7614 35.378C43.4956 37.0033 40.3671 36.7568 37.6153 36.2705Z" fill="url(#paint17_linear_290_1782)"/>
<path d="M65.2487 7.27231C66.045 7.93411 66.1765 9.15787 66.3035 10.3413C66.4496 11.7018 66.59 13.009 67.7281 13.3481C69.4358 13.8569 71.1968 13.0027 72.9361 12.1591C74.8115 11.2494 76.6618 10.352 78.3931 11.1883C80.9626 12.4296 80.6506 16.5638 80.2722 19.408C79.9102 22.1287 78.2139 24.3643 76.5545 26.5514L76.5531 26.5532C76.4703 26.6623 76.3877 26.7713 76.3053 26.8802C75.8568 27.4727 75.4246 28.1726 74.9838 28.8864C73.6141 31.1046 72.1617 33.4564 69.8852 33.1332C67.9826 32.8631 67.0877 30.9981 66.1709 29.0876C65.3622 27.4022 64.5365 25.6815 62.987 24.9894C61.7703 24.4459 60.2187 25.2504 58.7579 26.0078C57.1061 26.8643 55.5702 27.6607 54.7658 26.3797C53.8252 24.8816 55.0982 23.4178 56.4477 21.866C57.4586 20.7037 58.5124 19.492 58.711 18.1795C58.8576 17.2106 58.3104 16.3759 57.7537 15.5267C57.2962 14.8288 56.8322 14.121 56.7415 13.3208C56.6631 12.6293 56.5127 11.8773 56.3591 11.1089C55.8548 8.58746 55.3153 5.8895 57.1683 4.57208C59.5345 2.88976 63.0148 5.4157 65.2487 7.27231Z" fill="url(#paint18_linear_290_1782)"/>
<path d="M3.59182 73.8824C3.32869 73.8824 3.10502 73.7903 2.92082 73.6062C2.73663 73.422 2.64453 73.1983 2.64453 72.9352V46.8056C2.64453 46.5425 2.73663 46.3188 2.92082 46.1346C3.10502 45.9504 3.32869 45.8583 3.59182 45.8583H6.86788C7.13102 45.8583 7.35469 45.9504 7.53888 46.1346C7.72308 46.3188 7.81518 46.5425 7.81518 46.8056V72.9352C7.81518 73.1983 7.72308 73.422 7.53888 73.6062C7.35469 73.7903 7.13102 73.8824 6.86788 73.8824H3.59182ZM21.8923 74.2772C18.9715 74.2772 16.6559 73.4351 14.9455 71.751C13.2351 70.067 12.3141 67.6724 12.1825 64.5674C12.1562 64.3043 12.1431 63.9753 12.1431 63.5806C12.1431 63.1596 12.1562 62.8307 12.1825 62.5939C12.2878 60.6203 12.7351 58.9099 13.5245 57.4627C14.3403 56.0154 15.4586 54.9103 16.8795 54.1472C18.3005 53.3577 19.9714 52.963 21.8923 52.963C24.0237 52.963 25.813 53.4104 27.2603 54.305C28.7076 55.1734 29.7996 56.397 30.5364 57.9758C31.2731 59.5283 31.6415 61.3308 31.6415 63.3833V64.2122C31.6415 64.4753 31.5494 64.699 31.3652 64.8832C31.181 65.0673 30.9442 65.1594 30.6548 65.1594H17.5505C17.5505 65.1594 17.5505 65.1989 17.5505 65.2779C17.5505 65.3568 17.5505 65.4226 17.5505 65.4752C17.5768 66.3962 17.7479 67.2514 18.0637 68.0408C18.4057 68.8039 18.8925 69.4223 19.5241 69.8959C20.1819 70.3696 20.9582 70.6064 21.8528 70.6064C22.5896 70.6064 23.208 70.5011 23.7079 70.2906C24.2079 70.0538 24.6158 69.7907 24.9315 69.5012C25.2473 69.2118 25.471 68.9749 25.6025 68.7907C25.8394 68.475 26.0236 68.2908 26.1551 68.2382C26.313 68.1592 26.5367 68.1197 26.8261 68.1197H30.2206C30.4837 68.1197 30.6942 68.1987 30.8521 68.3566C31.0363 68.5144 31.1153 68.7118 31.0889 68.9486C31.0626 69.3696 30.839 69.8828 30.4179 70.488C30.0232 71.0932 29.4443 71.6853 28.6812 72.2642C27.9181 72.8431 26.9577 73.3299 25.7999 73.7246C24.6684 74.093 23.3659 74.2772 21.8923 74.2772ZM17.5505 61.8439H26.2735V61.7255C26.2735 60.6993 26.1025 59.8046 25.7604 59.0415C25.4183 58.2784 24.9184 57.6732 24.2605 57.2259C23.6027 56.7785 22.8133 56.5549 21.8923 56.5549C20.9713 56.5549 20.1819 56.7785 19.5241 57.2259C18.8662 57.6732 18.3663 58.2784 18.0242 59.0415C17.7084 59.8046 17.5505 60.6993 17.5505 61.7255V61.8439ZM44.6727 74.2772C41.7519 74.2772 39.4363 73.4351 37.7259 71.751C36.0155 70.067 35.0945 67.6724 34.9629 64.5674C34.9366 64.3043 34.9235 63.9753 34.9235 63.5806C34.9235 63.1596 34.9366 62.8307 34.9629 62.5939C35.0682 60.6203 35.5155 58.9099 36.3049 57.4627C37.1206 56.0154 38.239 54.9103 39.6599 54.1472C41.0809 53.3577 42.7518 52.963 44.6727 52.963C46.8041 52.963 48.5934 53.4104 50.0407 54.305C51.4879 55.1734 52.58 56.397 53.3167 57.9758C54.0535 59.5283 54.4219 61.3308 54.4219 63.3833V64.2122C54.4219 64.4753 54.3298 64.699 54.1456 64.8832C53.9614 65.0673 53.7246 65.1594 53.4352 65.1594H40.3309C40.3309 65.1594 40.3309 65.1989 40.3309 65.2779C40.3309 65.3568 40.3309 65.4226 40.3309 65.4752C40.3572 66.3962 40.5283 67.2514 40.844 68.0408C41.1861 68.8039 41.6729 69.4223 42.3045 69.8959C42.9623 70.3696 43.7385 70.6064 44.6332 70.6064C45.37 70.6064 45.9884 70.5011 46.4883 70.2906C46.9883 70.0538 47.3962 69.7907 47.7119 69.5012C48.0277 69.2118 48.2514 68.9749 48.3829 68.7907C48.6197 68.475 48.8039 68.2908 48.9355 68.2382C49.0934 68.1592 49.3171 68.1197 49.6065 68.1197H53.001C53.2641 68.1197 53.4746 68.1987 53.6325 68.3566C53.8167 68.5144 53.8956 68.7118 53.8693 68.9486C53.843 69.3696 53.6194 69.8828 53.1983 70.488C52.8036 71.0932 52.2247 71.6853 51.4616 72.2642C50.6985 72.8431 49.7381 73.3299 48.5803 73.7246C47.4488 74.093 46.1463 74.2772 44.6727 74.2772ZM40.3309 61.8439H49.0539V61.7255C49.0539 60.6993 48.8829 59.8046 48.5408 59.0415C48.1987 58.2784 47.6988 57.6732 47.0409 57.2259C46.3831 56.7785 45.5937 56.5549 44.6727 56.5549C43.7517 56.5549 42.9623 56.7785 42.3045 57.2259C41.6466 57.6732 41.1466 58.2784 40.8046 59.0415C40.4888 59.8046 40.3309 60.6993 40.3309 61.7255V61.8439ZM63.6383 73.8824C63.2699 73.8824 62.9936 73.7903 62.8094 73.6062C62.6252 73.422 62.4673 73.1851 62.3358 72.8957L56.6915 54.5813C56.6652 54.4498 56.652 54.3313 56.652 54.2261C56.652 53.9893 56.7309 53.7919 56.8888 53.634C57.073 53.4498 57.2704 53.3577 57.4809 53.3577H60.4017C60.7175 53.3577 60.9675 53.4498 61.1517 53.634C61.3358 53.7919 61.4411 53.9498 61.4674 54.1077L65.3355 67.1724L69.4405 54.2261C69.4931 54.0419 69.6115 53.8577 69.7957 53.6735C69.9799 53.463 70.2562 53.3577 70.6246 53.3577H72.5981C72.9665 53.3577 73.2428 53.463 73.427 53.6735C73.6112 53.8577 73.7296 54.0419 73.7822 54.2261L77.8872 67.1724L81.7553 54.1077C81.7816 53.9498 81.8737 53.7919 82.0316 53.634C82.2158 53.4498 82.4658 53.3577 82.7815 53.3577H85.7024C85.9392 53.3577 86.1365 53.4498 86.2944 53.634C86.4786 53.7919 86.5707 53.9893 86.5707 54.2261C86.5707 54.3313 86.5444 54.4498 86.4918 54.5813L80.8475 72.8957C80.7685 73.1851 80.6238 73.422 80.4133 73.6062C80.2291 73.7903 79.9528 73.8824 79.5844 73.8824H77.0188C76.6504 73.8824 76.361 73.7903 76.1505 73.6062C75.94 73.422 75.7952 73.1851 75.7163 72.8957L71.6114 60.423L67.5064 72.8957C67.4012 73.1851 67.2433 73.422 67.0328 73.6062C66.8486 73.7903 66.5591 73.8824 66.1644 73.8824H63.6383ZM95.755 74.2772C94.3867 74.2772 93.15 74.014 92.0448 73.4877C90.9396 72.9352 90.0581 72.2115 89.4003 71.3169C88.7687 70.3959 88.453 69.3696 88.453 68.2382C88.453 66.3962 89.1897 64.9358 90.6633 63.8569C92.1632 62.7517 94.1367 62.015 96.5839 61.6466L101.991 60.8572V60.0283C101.991 58.9231 101.715 58.0679 101.162 57.4627C100.61 56.8575 99.6626 56.5549 98.3206 56.5549C97.3733 56.5549 96.5971 56.7522 95.9918 57.1469C95.4129 57.5153 94.9788 58.0153 94.6893 58.6468C94.4788 58.9889 94.1762 59.1599 93.7815 59.1599H90.6633C90.3739 59.1599 90.1502 59.081 89.9923 58.9231C89.8607 58.7652 89.795 58.5547 89.795 58.2916C89.8213 57.8705 89.9923 57.3574 90.3081 56.7522C90.6238 56.147 91.1238 55.5681 91.808 55.0155C92.4921 54.4366 93.3736 53.9498 94.4525 53.5551C95.5314 53.1604 96.8339 52.963 98.3601 52.963C100.018 52.963 101.412 53.1735 102.544 53.5946C103.702 53.9893 104.623 54.5287 105.307 55.2129C105.991 55.897 106.491 56.6996 106.807 57.6206C107.123 58.5415 107.28 59.5152 107.28 60.5414V72.9352C107.28 73.1983 107.188 73.422 107.004 73.6062C106.82 73.7903 106.596 73.8824 106.333 73.8824H103.136C102.847 73.8824 102.61 73.7903 102.426 73.6062C102.268 73.422 102.189 73.1983 102.189 72.9352V71.3958C101.847 71.8958 101.386 72.3694 100.807 72.8167C100.228 73.2378 99.5179 73.593 98.6758 73.8824C97.8601 74.1456 96.8865 74.2772 95.755 74.2772ZM97.097 70.5274C98.018 70.5274 98.8469 70.3301 99.5837 69.9354C100.347 69.5407 100.939 68.9355 101.36 68.1197C101.807 67.2777 102.031 66.2252 102.031 64.9621V64.1332L98.0838 64.7647C96.5313 65.0016 95.3735 65.3831 94.6104 65.9094C93.8473 66.4357 93.4657 67.0803 93.4657 67.8434C93.4657 68.4223 93.6368 68.9223 93.9788 69.3433C94.3472 69.738 94.8077 70.0406 95.3603 70.2512C95.9129 70.4353 96.4918 70.5274 97.097 70.5274ZM115.515 81.3819C115.304 81.3819 115.12 81.3029 114.962 81.145C114.804 80.9872 114.725 80.803 114.725 80.5924C114.725 80.4872 114.725 80.3819 114.725 80.2767C114.752 80.1977 114.804 80.0925 114.883 79.9609L117.962 72.6589L110.383 54.7787C110.278 54.5155 110.226 54.3313 110.226 54.2261C110.252 53.9893 110.344 53.7919 110.502 53.634C110.66 53.4498 110.857 53.3577 111.094 53.3577H114.291C114.607 53.3577 114.844 53.4367 115.002 53.5946C115.159 53.7524 115.278 53.9235 115.357 54.1077L120.606 67.0146L126.014 54.1077C126.093 53.8972 126.211 53.7261 126.369 53.5946C126.527 53.4367 126.764 53.3577 127.08 53.3577H130.237C130.448 53.3577 130.632 53.4367 130.79 53.5946C130.974 53.7524 131.066 53.9366 131.066 54.1472C131.066 54.305 131.013 54.5155 130.908 54.7787L119.738 80.6319C119.633 80.8424 119.501 81.0135 119.343 81.145C119.185 81.3029 118.949 81.3819 118.633 81.3819H115.515Z" fill="url(#paint19_linear_290_1782)"/>
</g>
<defs>
<linearGradient id="paint0_linear_290_1782" x1="4.28194" y1="34.0006" x2="128.511" y2="35.169" gradientUnits="userSpaceOnUse">
<stop stop-color="#EC7363"/>
<stop offset="1" stop-color="#EA6290"/>
</linearGradient>
<linearGradient id="paint1_linear_290_1782" x1="4.28194" y1="34.0006" x2="128.511" y2="35.169" gradientUnits="userSpaceOnUse">
<stop stop-color="#EC7363"/>
<stop offset="1" stop-color="#EA6290"/>
</linearGradient>
<linearGradient id="paint2_linear_290_1782" x1="4.28194" y1="34.0006" x2="128.511" y2="35.169" gradientUnits="userSpaceOnUse">
<stop stop-color="#EC7363"/>
<stop offset="1" stop-color="#EA6290"/>
</linearGradient>
<linearGradient id="paint3_linear_290_1782" x1="4.28194" y1="34.0006" x2="128.511" y2="35.169" gradientUnits="userSpaceOnUse">
<stop stop-color="#EC7363"/>
<stop offset="1" stop-color="#EA6290"/>
</linearGradient>
<linearGradient id="paint4_linear_290_1782" x1="4.28194" y1="34.0006" x2="128.511" y2="35.169" gradientUnits="userSpaceOnUse">
<stop stop-color="#EC7363"/>
<stop offset="1" stop-color="#EA6290"/>
</linearGradient>
<linearGradient id="paint5_linear_290_1782" x1="4.28194" y1="34.0006" x2="128.511" y2="35.169" gradientUnits="userSpaceOnUse">
<stop stop-color="#EC7363"/>
<stop offset="1" stop-color="#EA6290"/>
</linearGradient>
<linearGradient id="paint6_linear_290_1782" x1="4.28194" y1="34.0006" x2="128.511" y2="35.169" gradientUnits="userSpaceOnUse">
<stop stop-color="#EC7363"/>
<stop offset="1" stop-color="#EA6290"/>
</linearGradient>
<linearGradient id="paint7_linear_290_1782" x1="4.28194" y1="34.0006" x2="128.511" y2="35.169" gradientUnits="userSpaceOnUse">
<stop stop-color="#EC7363"/>
<stop offset="1" stop-color="#EA6290"/>
</linearGradient>
<linearGradient id="paint8_linear_290_1782" x1="4.28194" y1="34.0006" x2="128.511" y2="35.169" gradientUnits="userSpaceOnUse">
<stop stop-color="#EC7363"/>
<stop offset="1" stop-color="#EA6290"/>
</linearGradient>
<linearGradient id="paint9_linear_290_1782" x1="4.28194" y1="34.0006" x2="128.511" y2="35.169" gradientUnits="userSpaceOnUse">
<stop stop-color="#EC7363"/>
<stop offset="1" stop-color="#EA6290"/>
</linearGradient>
<linearGradient id="paint10_linear_290_1782" x1="4.28194" y1="34.0006" x2="128.511" y2="35.169" gradientUnits="userSpaceOnUse">
<stop stop-color="#EC7363"/>
<stop offset="1" stop-color="#EA6290"/>
</linearGradient>
<linearGradient id="paint11_linear_290_1782" x1="4.28194" y1="34.0006" x2="128.511" y2="35.169" gradientUnits="userSpaceOnUse">
<stop stop-color="#EC7363"/>
<stop offset="1" stop-color="#EA6290"/>
</linearGradient>
<linearGradient id="paint12_linear_290_1782" x1="4.28194" y1="34.0006" x2="128.511" y2="35.169" gradientUnits="userSpaceOnUse">
<stop stop-color="#EC7363"/>
<stop offset="1" stop-color="#EA6290"/>
</linearGradient>
<linearGradient id="paint13_linear_290_1782" x1="4.28194" y1="34.0006" x2="128.511" y2="35.169" gradientUnits="userSpaceOnUse">
<stop stop-color="#EC7363"/>
<stop offset="1" stop-color="#EA6290"/>
</linearGradient>
<linearGradient id="paint14_linear_290_1782" x1="4.28194" y1="34.0006" x2="128.511" y2="35.169" gradientUnits="userSpaceOnUse">
<stop stop-color="#EC7363"/>
<stop offset="1" stop-color="#EA6290"/>
</linearGradient>
<linearGradient id="paint15_linear_290_1782" x1="4.28194" y1="34.0006" x2="128.511" y2="35.169" gradientUnits="userSpaceOnUse">
<stop stop-color="#EC7363"/>
<stop offset="1" stop-color="#EA6290"/>
</linearGradient>
<linearGradient id="paint16_linear_290_1782" x1="4.28194" y1="34.0006" x2="128.511" y2="35.169" gradientUnits="userSpaceOnUse">
<stop stop-color="#EC7363"/>
<stop offset="1" stop-color="#EA6290"/>
</linearGradient>
<linearGradient id="paint17_linear_290_1782" x1="4.28194" y1="34.0006" x2="128.511" y2="35.169" gradientUnits="userSpaceOnUse">
<stop stop-color="#EC7363"/>
<stop offset="1" stop-color="#EA6290"/>
</linearGradient>
<linearGradient id="paint18_linear_290_1782" x1="4.28194" y1="34.0006" x2="128.511" y2="35.169" gradientUnits="userSpaceOnUse">
<stop stop-color="#EC7363"/>
<stop offset="1" stop-color="#EA6290"/>
</linearGradient>
<linearGradient id="paint19_linear_290_1782" x1="2.3876" y1="68.0622" x2="129.098" y2="69.3877" gradientUnits="userSpaceOnUse">
<stop stop-color="#EA6290"/>
<stop offset="1" stop-color="#EC7363"/>
</linearGradient>
<clipPath id="clip0_290_1782">
<rect width="132" height="82" fill="white"/>
</clipPath>
</defs>
</svg>
